<?xml version="1.0" standalone="no"?>
<!DOCTYPE svg PUBLIC "-//W3C//DTD SVG 20010904//EN"
 "http://www.w3.org/TR/2001/REC-SVG-20010904/DTD/svg10.dtd">
<svg version="1.0" xmlns="http://www.w3.org/2000/svg"
 width="1024.000000pt" height="1024.000000pt" viewBox="0 0 1024.000000 1024.000000"
 preserveAspectRatio="xMidYMid meet">

<g transform="translate(0.000000,1024.000000) scale(0.100000,-0.100000)"
fill="#000000" stroke="none">
<path d="M4735 9521 c-172 -45 -291 -249 -225 -387 27 -54 117 -139 177 -167
134 -60 316 13 387 156 34 66 36 157 5 222 -55 117 -229 206 -344 176z m170
-155 c100 -77 78 -225 -42 -278 -54 -24 -107 -18 -170 18 -52 30 -73 68 -73
130 0 59 28 105 83 139 59 36 148 32 202 -9z"/>
<path d="M5610 9483 c-1 -21 -7 -74 -16 -118 -17 -93 -41 -263 -50 -351 l-7
-60 120 -12 c174 -18 246 -1 317 79 103 114 106 251 6 371 -51 62 -127 90
-332 123 l-38 6 0 -38z m188 -122 c87 -19 136 -76 129 -150 -5 -48 -26 -81
-78 -123 -45 -36 -94 -45 -141 -25 l-37 15 15 47 c7 26 19 94 26 151 10 85 15
103 28 99 8 -2 34 -8 58 -14z"/>
<path d="M4245 9445 c-16 -8 -40 -14 -52 -15 -20 0 -21 -3 -12 -32 5 -18 22
-112 39 -208 32 -194 55 -309 63 -316 3 -3 32 0 66 7 47 10 60 17 56 29 -2 8
-22 119 -45 245 -59 338 -52 319 -115 290z"/>
<path d="M3740 9310 c-47 -17 -105 -37 -130 -44 -28 -8 -44 -18 -44 -27 4 -33
150 -516 160 -528 6 -7 116 33 120 44 3 6 -5 37 -16 69 -11 33 -20 65 -20 72
0 7 18 18 41 24 33 9 44 8 57 -2 10 -8 45 -38 80 -67 l62 -53 50 21 c27 11 56
21 65 21 27 0 14 17 -65 83 -41 35 -76 70 -78 79 -2 10 7 31 20 48 33 45 33
139 0 193 -31 49 -94 85 -162 92 -46 5 -69 1 -140 -25z m158 -106 c55 -38 46
-112 -17 -143 -20 -10 -54 -22 -76 -25 l-41 -7 -22 68 c-12 37 -18 71 -14 75
8 8 119 46 137 47 6 1 21 -6 33 -15z"/>
<path d="M6439 9282 c-123 -110 -323 -324 -362 -389 -5 -7 13 -21 49 -37 l57
-26 34 40 c19 22 40 40 46 40 6 0 51 -14 99 -31 l88 -32 0 -61 0 -61 48 -12
c26 -6 55 -14 65 -18 16 -7 17 4 17 146 0 158 -18 449 -29 460 -3 4 -20 10
-37 13 -26 6 -37 1 -75 -32z m21 -227 c0 -62 -1 -65 -24 -65 -28 0 -86 19 -86
28 0 15 82 102 96 102 11 0 14 -15 14 -65z"/>
<path d="M3085 9259 c-28 -8 -74 -67 -114 -146 -24 -47 60 -73 110 -34 13 10
42 28 65 39 43 22 104 84 104 106 0 40 -86 59 -165 35z"/>
<path d="M3163 9061 c-72 -18 -172 -101 -209 -173 -22 -42 -29 -142 -15 -195
17 -64 80 -136 147 -169 77 -38 191 -45 255 -16 137 62 221 220 184 348 -19
64 -95 153 -158 182 -48 23 -156 35 -204 23z m120 -125 c39 -17 92 -71 106
-109 27 -70 3 -143 -62 -191 -34 -25 -126 -27 -172 -4 -65 34 -111 113 -99
172 12 66 102 145 167 146 15 0 42 -6 60 -14z"/>
<path d="M7171 8993 c-46 -185 -82 -354 -92 -433 -6 -52 -13 -98 -15 -102 -2
-3 0 -18 6 -32 8 -21 16 -26 45 -26 82 0 284 93 459 210 58 39 108 75 110 79
3 4 -16 31 -42 58 l-47 51 -45 -40 c-81 -72 -202 -151 -268 -175 -36 -13 -67
-21 -70 -19 -6 6 55 285 74 340 8 21 14 40 14 41 0 6 -103 85 -111 85 -4 0
-12 -17 -18 -37z"/>
<path d="M4905 8754 c-227 -23 -477 -66 -745 -130 -274 -64 -682 -234 -960
-398 -388 -231 -645 -450 -986 -841 -220 -252 -521 -736 -632 -1015 -154 -389
-247 -757 -287 -1130 -31 -289 -43 -1013 -24 -1444 14 -319 55 -539 150 -813
58 -164 185 -421 278 -560 167 -250 428 -527 664 -706 227 -172 284 -205 462
-272 l100 -37 400 3 c220 2 1208 3 2195 1 l1795 -3 64 21 c215 72 524 279 773
518 247 238 403 453 577 792 68 133 115 264 162 453 86 344 82 288 86 1072 5
776 -1 930 -47 1200 -47 275 -78 393 -171 650 -71 199 -111 292 -199 467 -132
262 -248 450 -390 633 -332 427 -696 755 -1132 1018 -181 109 -439 231 -663
312 -202 73 -545 153 -815 190 -110 16 -562 28 -655 19z m645 -110 c256 -29
619 -118 866 -214 417 -161 763 -371 1116 -677 102 -88 354 -345 416 -423 20
-25 59 -70 87 -100 139 -150 419 -621 555 -935 124 -285 220 -632 269 -970 17
-114 22 -217 27 -550 4 -225 3 -512 -1 -637 l-7 -228 -113 0 -112 0 13 87 c8
49 26 126 40 173 53 170 64 227 71 349 6 112 4 125 -12 137 -17 12 -16 17 10
81 23 55 29 88 33 168 2 60 -1 112 -7 129 -11 26 -14 28 -49 21 -20 -4 -41 -7
-47 -8 -6 -1 -10 88 -12 233 -1 129 -4 267 -7 307 -7 119 -51 190 -108 175
-29 -7 -77 -73 -93 -126 -17 -57 -21 -236 -5 -236 6 0 10 8 10 19 0 31 36 164
54 199 37 72 40 46 30 -315 -5 -192 -9 -403 -9 -469 l0 -122 -26 13 c-37 19
-94 86 -122 142 -25 49 -40 107 -31 116 3 2 28 -4 55 -14 68 -26 62 -3 -8 31
l-51 24 -6 61 c-3 33 -6 328 -7 656 -1 328 -4 601 -8 607 -4 8 -103 14 -291
18 -267 7 -286 6 -300 -11 -13 -16 -16 -106 -19 -639 l-4 -621 -197 -190 -198
-190 -3 -400 -4 -400 -162 -1 c-90 -1 -163 0 -163 2 0 3 13 30 29 62 39 78 93
239 136 405 31 121 35 153 35 260 l0 122 55 111 c89 181 86 200 -31 172 l-64
-15 29 51 c84 151 101 185 101 209 0 24 -4 27 -33 27 -18 0 -55 -7 -81 -16
-26 -9 -50 -14 -53 -11 -3 4 15 39 40 79 52 85 77 133 77 148 0 5 -13 10 -30
10 -37 0 -88 -44 -141 -122 -22 -32 -41 -58 -42 -58 -2 0 -3 73 -3 163 1 129
-3 175 -18 224 -41 138 -114 150 -166 27 -28 -63 -40 -151 -40 -281 0 -63 -4
-113 -9 -113 -5 0 -26 27 -46 60 -42 68 -77 100 -113 100 -22 0 -24 -3 -19
-34 6 -36 31 -92 67 -150 25 -42 18 -45 -50 -21 -60 21 -70 19 -70 -12 0 -37
40 -121 102 -216 28 -43 49 -80 46 -83 -3 -2 -25 3 -49 12 -24 9 -63 19 -86
21 -35 4 -43 2 -43 -11 0 -29 45 -129 93 -206 26 -41 47 -78 47 -82 0 -4 -15
-11 -32 -16 -29 -7 -33 -13 -36 -45 -3 -41 30 -256 54 -352 24 -94 111 -371
124 -395 6 -12 10 -24 7 -26 -2 -2 -141 -3 -308 -2 l-304 3 41 22 c52 28 110
93 137 152 61 135 -11 361 -123 386 -17 4 -34 13 -37 21 -3 8 5 50 17 94 27
95 25 185 -6 245 -12 22 -51 80 -88 128 -36 48 -66 92 -66 98 0 5 7 35 15 67
8 31 40 186 70 344 30 158 71 340 90 405 20 65 49 181 65 258 16 77 43 203 60
280 17 77 37 172 45 210 42 216 65 282 108 310 31 20 204 37 292 29 62 -5 73
-3 97 16 15 11 33 39 40 62 12 40 11 41 -25 74 -42 39 -96 45 -148 19 -16 -9
-72 -26 -125 -39 -97 -25 -185 -69 -228 -116 -33 -35 -72 -141 -87 -235 -7
-44 -17 -85 -23 -91 -6 -7 -67 -21 -136 -33 -149 -25 -708 -106 -834 -121 -48
-6 -123 -17 -165 -25 -42 -8 -170 -28 -286 -45 -115 -17 -257 -39 -315 -50
-58 -10 -143 -24 -190 -30 -153 -20 -374 -59 -428 -75 -65 -20 -128 -74 -155
-135 -19 -41 -21 -78 -30 -407 -10 -420 -7 -440 66 -520 76 -83 82 -84 652
-113 110 -6 328 -17 485 -25 389 -20 830 -36 915 -33 l69 3 31 -46 c16 -25 51
-69 77 -98 59 -66 88 -125 88 -183 0 -38 -6 -52 -38 -88 -35 -39 -44 -44 -98
-51 -32 -4 -544 -8 -1136 -8 -965 -1 -1078 -3 -1092 -17 -19 -18 -21 -45 -4
-62 7 -7 43 -12 91 -12 l78 0 -35 -43 c-54 -66 -79 -131 -84 -220 -4 -72 -2
-82 27 -142 29 -59 45 -76 131 -145 l25 -19 -397 -1 c-390 0 -443 4 -370 31
102 37 199 123 249 222 106 212 69 447 -100 624 l-30 33 54 57 c63 66 105 125
143 201 l26 52 -23 9 c-29 11 -147 3 -164 -12 -17 -13 -16 -4 7 78 27 95 27
125 -3 125 -27 0 -58 -20 -114 -73 l-42 -40 -11 29 c-6 16 -20 56 -31 89 -39
115 -93 184 -129 165 -21 -11 -63 -104 -86 -190 -10 -36 -19 -67 -21 -69 -1
-2 -22 12 -45 31 -50 41 -81 58 -102 58 -23 0 -21 -57 4 -120 11 -28 20 -59
20 -70 0 -17 -4 -18 -28 -9 -16 5 -55 11 -88 12 -54 2 -59 0 -62 -20 -5 -32
39 -109 105 -187 96 -112 94 -107 45 -158 -102 -104 -143 -204 -150 -361 -4
-91 -1 -118 18 -176 39 -123 146 -236 285 -302 36 -18 52 -29 40 -30 -43 -2
-610 3 -613 6 -2 1 10 24 27 49 52 84 53 88 48 832 -6 856 7 785 -190 1073
-42 60 -47 91 -17 91 60 0 120 68 120 136 0 45 -94 326 -124 369 -16 23 -20
42 -18 83 3 49 1 55 -31 87 l-35 35 -144 0 c-98 -1 -155 -5 -183 -15 -49 -18
-45 -18 -45 -1 0 8 26 54 58 103 32 48 79 120 104 158 25 39 114 162 198 275
130 174 184 236 359 411 172 172 232 225 366 321 484 349 952 555 1520 667
224 45 316 58 490 71 156 11 464 4 635 -16z m-3392 -2131 l3 -53 -48 -1 c-26
0 -77 -2 -113 -4 -36 -2 -72 -2 -81 1 -19 5 -31 50 -22 82 7 27 24 30 153 28
l105 -1 3 -52z m-353 11 c16 -25 16 -27 -18 -82 -67 -110 -109 -221 -123 -326
-11 -75 30 -149 87 -161 16 -4 29 -10 29 -15 0 -4 -16 -30 -35 -56 -74 -102
-127 -187 -152 -240 -59 -129 -57 -101 -61 -849 -2 -476 0 -701 8 -727 6 -20
31 -62 56 -93 25 -31 44 -59 41 -62 -3 -3 -67 -2 -141 2 l-136 7 -6 36 c-9 49
5 986 17 1142 18 237 71 521 146 785 62 220 115 376 161 476 22 46 50 108 62
137 25 58 40 64 65 26z m4483 -21 c-15 -83 -78 -424 -94 -512 -16 -88 -28
-121 -44 -121 -6 0 -10 123 -10 325 l0 325 23 4 c12 3 40 9 62 14 73 18 74 18
63 -35z m-240 -320 l-3 -328 -40 2 c-22 1 -74 5 -116 8 l-76 6 -8 300 c-4 165
-5 302 -3 304 4 4 189 32 226 34 l22 1 -2 -327z m-328 -19 l0 -294 -120 0
-120 0 0 278 0 279 86 13 c48 7 99 16 113 20 14 4 29 5 34 3 4 -2 7 -137 7
-299z m-327 -21 l3 -273 -123 0 -123 0 0 255 0 255 24 6 c37 9 190 32 203 30
9 -1 13 -72 16 -273z m-3562 81 c-6 -77 -11 -147 -11 -157 0 -15 -7 -18 -32
-15 -31 3 -33 6 -36 45 -2 23 6 71 17 107 24 77 62 168 68 162 2 -2 -1 -66 -6
-142z m3234 -102 l0 -247 -117 -3 c-65 -1 -118 -1 -119 0 -5 26 -9 381 -4 414
6 41 8 44 38 45 18 0 66 9 107 19 41 9 80 18 85 19 6 1 10 -87 10 -247z
m-2925 108 l0 -130 -47 1 c-27 0 -78 -3 -115 -6 l-68 -7 0 120 c0 66 3 127 6
136 5 13 25 16 115 16 l109 0 0 -130z m138 15 c16 -49 33 -105 37 -123 8 -39
-7 -62 -40 -62 -18 0 -24 7 -29 38 -6 40 -9 248 -2 241 2 -2 17 -44 34 -94z
m2462 -155 l0 -220 -120 0 -120 0 2 203 3 202 90 16 c50 9 102 17 118 18 l27
1 0 -220z m3418 183 c107 -6 112 -7 112 -28 0 -38 -12 -85 -21 -85 -5 0 -7 12
-4 28 3 15 2 21 -1 13 -4 -8 -9 -9 -13 -3 -9 14 -51 25 -51 13 0 -6 4 -11 9
-11 5 0 11 -7 14 -14 4 -10 1 -13 -8 -10 -7 3 -16 -3 -19 -13 -7 -25 -4 -233
4 -238 4 -2 6 -27 4 -54 -1 -28 2 -48 7 -45 5 3 9 -6 9 -20 0 -14 5 -28 10
-31 6 -4 8 -11 4 -16 -8 -14 4 -59 16 -59 6 0 10 15 11 33 l1 32 13 -30 c8
-16 14 -60 15 -97 0 -55 -3 -68 -16 -68 -9 0 -12 -5 -8 -12 12 -20 13 -73 1
-81 -9 -6 -9 -10 0 -13 9 -4 9 -13 2 -31 -8 -21 -7 -24 6 -19 8 3 15 1 15 -4
0 -6 -4 -10 -10 -10 -5 0 -10 -21 -10 -46 0 -25 -4 -43 -9 -40 -5 3 -7 16 -4
29 4 18 3 19 -6 6 -8 -13 -7 -25 4 -45 8 -16 15 -23 15 -15 0 8 2 12 5 9 9 -8
-6 -38 -16 -32 -5 3 -9 1 -9 -5 0 -5 5 -13 10 -16 6 -3 10 -12 10 -18 0 -7 -4
-6 -10 3 -8 13 -10 12 -10 -3 0 -10 7 -20 15 -23 11 -5 12 -9 2 -19 -7 -7 -15
-11 -19 -8 -4 2 -5 -3 -2 -11 3 -9 10 -16 15 -16 5 0 9 -8 9 -17 0 -15 -2 -16
-10 -3 -6 10 -9 -19 -9 -88 0 -63 4 -102 10 -102 6 0 3 -7 -6 -16 -14 -15 -14
-18 0 -33 8 -10 15 -24 16 -32 0 -10 2 -10 6 -1 20 50 23 -28 18 -450 -4 -255
-8 -469 -10 -475 -3 -8 -23 -13 -53 -13 l-48 0 0 394 1 395 -122 123 c-67 68
-140 145 -163 172 l-41 49 3 613 3 614 100 0 c55 0 151 -3 213 -7z m-3738
-203 l0 -200 -120 0 -120 0 0 179 0 179 73 12 c39 7 90 16 112 20 22 4 43 8
48 9 4 1 7 -89 7 -199z m-326 -20 c4 -88 4 -165 1 -170 -4 -6 -54 -10 -117
-10 l-111 0 5 115 c7 150 26 180 135 210 85 24 79 34 87 -145z m-2049 -50 c4
-6 21 -8 40 -4 50 9 75 -2 75 -34 0 -56 24 -109 82 -187 73 -96 101 -151 127
-243 18 -66 20 -114 23 -765 l3 -694 -26 -39 c-14 -22 -45 -52 -67 -68 -38
-26 -51 -29 -174 -37 -73 -4 -173 -8 -221 -9 -86 0 -89 1 -145 39 -71 48 -96
75 -118 126 -16 36 -18 95 -22 540 -5 561 6 831 37 937 23 79 72 163 147 250
49 56 59 77 78 160 5 22 12 27 44 31 75 8 111 7 117 -3z m6222 -212 c-2 -18
-4 -6 -4 27 0 33 2 48 4 33 2 -15 2 -42 0 -60z m-3849 -290 c2 -200 -1 -299
-8 -303 -6 -4 -60 -3 -120 0 l-110 8 0 293 0 293 53 4 c28 2 81 3 117 3 l65
-1 3 -297z m320 -10 l2 -308 -37 0 c-21 0 -75 3 -121 7 l-82 6 1 298 1 298 82
4 c44 2 97 3 116 3 l35 -1 3 -307z m319 300 c7 -11 5 -618 -2 -626 -1 -1 -52
0 -112 4 l-110 7 -7 91 c-3 50 -3 189 0 308 l7 217 41 4 c99 9 175 7 183 -5z
m338 -35 c-1 -24 -2 -169 -3 -323 l-2 -280 -52 0 c-29 0 -83 3 -121 7 l-67 6
1 313 c1 226 4 314 12 318 7 3 62 4 122 3 l110 -2 0 -42z m326 25 c1 -13 1
-27 0 -32 -1 -5 -2 -143 -1 -307 l0 -299 -72 0 c-40 0 -96 3 -123 6 l-50 6 4
317 c2 221 7 318 15 323 6 4 59 8 119 8 104 0 107 -1 108 -22z m2523 6 c3 -8
2 -12 -4 -9 -6 3 -10 10 -10 16 0 14 7 11 14 -7z m-4154 -54 l0 -60 -110 0
-110 0 0 54 c0 54 0 55 33 59 17 2 67 5 110 5 l77 2 0 -60z m1974 44 c22 -57
-14 -451 -55 -608 l-10 -38 -92 7 c-51 4 -94 9 -97 11 -5 6 -6 132 -2 427 l2
217 124 0 c104 0 125 -3 130 -16z m888 -309 c-1 -110 -7 -215 -13 -233 l-11
-34 -21 34 c-19 29 -22 45 -19 138 2 111 15 229 33 294 10 37 12 38 22 21 8
-14 11 -82 9 -220z m-2951 145 l87 0 7 -164 c4 -90 4 -183 0 -206 l-7 -41 -41
6 c-57 10 -87 27 -130 74 -54 60 -67 127 -50 280 5 57 8 62 27 57 12 -3 60 -6
107 -6z m-857 -360 c7 -25 19 -76 25 -115 11 -62 10 -76 -6 -124 -10 -30 -23
-56 -28 -58 -6 -2 -25 24 -44 58 -32 59 -33 64 -29 147 3 51 12 105 23 131 17
41 19 42 32 25 7 -10 20 -39 27 -64z m3597 9 c24 -16 72 -48 107 -70 l62 -41
0 -58 c0 -31 2 -79 5 -106 4 -34 3 -43 -4 -28 -5 11 -24 32 -43 46 -19 14 -69
80 -111 146 -98 152 -100 170 -16 111z m449 -27 c0 -16 -112 -177 -138 -199
-33 -28 -42 -17 -42 53 0 60 18 81 107 125 63 30 73 33 73 21z m-3720 -170 c0
-17 -104 -132 -136 -151 -36 -21 -79 -27 -101 -13 -19 12 19 67 72 105 67 47
165 83 165 59z m-532 -51 c95 -62 117 -111 49 -111 -24 0 -46 12 -84 45 -29
25 -62 59 -73 75 l-21 30 34 0 c23 0 54 -13 95 -39z m4292 -32 c0 -21 -135
-211 -170 -240 -54 -45 -64 -40 -57 31 8 88 32 128 105 178 62 41 122 56 122
31z m-479 -24 c80 -42 181 -214 139 -240 -16 -10 -74 20 -101 52 -28 33 -109
184 -109 203 0 12 27 7 71 -15z m1086 -47 c37 -39 105 -110 151 -158 l82 -86
0 -331 c0 -182 -3 -351 -6 -377 l-7 -46 -52 0 c-29 0 -67 3 -84 6 l-31 7 0
204 c0 230 -4 244 -70 282 -69 39 -141 19 -194 -52 -19 -26 -21 -44 -24 -232
l-4 -203 -66 -4 c-37 -3 -73 -3 -79 0 -10 3 -13 87 -13 371 l0 367 25 35 c26
36 285 288 297 289 4 0 37 -32 75 -72z m-4645 -112 c49 -18 140 -85 131 -98
-3 -6 -1 -8 4 -5 13 8 73 -57 73 -78 0 -8 5 -15 10 -15 6 0 10 -8 10 -17 0
-15 -2 -15 -9 -4 -7 12 -13 12 -24 3 -7 -7 -17 -9 -20 -6 -4 4 -17 0 -30 -9
-35 -23 -73 -10 -115 39 -46 55 -134 104 -159 88 -20 -12 -50 -60 -55 -87 -3
-15 6 -18 62 -21 69 -3 123 -24 134 -51 9 -25 -24 -96 -50 -106 -25 -9 -33
-39 -11 -39 25 0 57 -82 57 -147 l0 -63 -51 0 c-44 0 -55 4 -79 30 -15 16 -31
42 -35 57 -9 39 -24 53 -54 53 -67 0 -96 -69 -46 -108 14 -11 43 -23 65 -27
33 -6 41 -12 45 -33 16 -76 16 -77 75 -77 59 0 59 0 75 78 4 20 11 27 28 27
13 0 28 -5 34 -11 7 -7 35 -10 71 -7 l60 4 -20 -25 c-18 -23 -99 -81 -114 -81
-3 0 -38 -14 -77 -31 l-71 -31 -51 16 c-107 33 -190 109 -242 222 -24 51 -28
71 -28 154 0 115 19 177 81 272 81 121 211 175 326 134z m5228 -101 c19 -25
36 -45 40 -45 3 0 22 -16 43 -36 30 -30 37 -43 37 -75 0 -22 -6 -48 -12 -59
-10 -16 -9 -25 5 -49 14 -24 18 -63 22 -213 5 -182 5 -183 -10 -116 -9 37 -30
105 -47 150 l-32 83 -8 -60 c-6 -45 -3 -89 13 -180 12 -66 24 -135 26 -152 l5
-33 -65 0 -64 0 1 415 c0 228 4 415 7 415 3 0 20 -20 39 -45z m-1501 -95 c71
-9 93 -8 130 5 66 23 68 22 61 -40 -7 -65 -12 -72 -45 -57 -40 18 -55 15 -55
-12 0 -14 -5 -28 -10 -31 -6 -4 -10 -14 -8 -23 1 -10 -1 -23 -5 -29 -6 -10 1
-13 27 -13 32 0 36 -3 36 -26 0 -14 4 -23 10 -19 6 3 10 16 10 27 0 12 3 19 6
15 4 -3 3 -23 0 -43 -5 -26 -11 -33 -18 -26 -6 6 -17 8 -25 5 -12 -5 -12 -7
-1 -15 9 -7 8 -8 -6 -4 -10 4 -29 0 -41 -8 -19 -12 -23 -28 -30 -113 -5 -54
-9 -123 -10 -153 0 -59 -11 -100 -25 -100 -27 0 -182 512 -197 652 l-6 58 58
-20 c32 -11 97 -25 144 -30z m1749 -50 c3 -21 -11 -39 -30 -40 -10 0 -10 54
-1 64 12 12 28 0 31 -24z m-2778 -79 c0 -5 -16 -29 -36 -53 -50 -58 -74 -120
-81 -200 -5 -62 -3 -73 26 -132 29 -60 66 -102 136 -153 l30 -22 -850 0 c-750
0 -848 1 -831 14 11 8 25 15 31 15 21 0 104 95 127 145 18 39 23 68 23 130 0
93 -21 148 -79 212 -19 22 -33 43 -29 47 10 10 1533 7 1533 -3z m-1641 -64
c51 -34 97 -97 112 -151 30 -110 -47 -235 -166 -267 -76 -21 -170 19 -221 93
-26 38 -29 52 -29 118 0 104 30 162 105 208 48 29 62 33 107 29 35 -2 65 -13
92 -30z m1919 7 c119 -59 164 -186 107 -301 -72 -143 -248 -168 -352 -49 -17
19 -36 51 -43 72 -17 51 -7 136 23 187 67 112 159 144 265 91z m-2883 6 c4 -6
28 -10 54 -9 26 1 56 -3 66 -9 19 -11 18 -11 -7 -12 -18 0 -28 -5 -28 -15 0
-11 11 -15 37 -15 l37 0 -23 -21 c-12 -12 -25 -19 -28 -15 -3 3 -12 -2 -20
-10 -10 -10 -26 -13 -44 -10 -16 4 -42 9 -58 12 -37 7 -84 72 -69 97 10 19 73
24 83 7z m3692 -207 c-2 -16 -4 -5 -4 22 0 28 2 40 4 28 2 -13 2 -35 0 -50z
m186 -402 l1717 -1 0 -79 c0 -97 -13 -204 -42 -333 l-21 -98 -661 -1 c-1849
-5 -5537 -5 -6092 0 l-630 4 -22 96 c-25 107 -37 193 -47 326 l-7 90 2044 -2
c1123 0 2816 -2 3761 -2z m1627 -631 c0 -31 -73 -235 -129 -360 -109 -243
-285 -510 -462 -703 l-44 -47 -3025 -1 -3025 0 -98 107 c-167 182 -300 386
-411 628 -62 136 -136 338 -136 374 l0 22 3665 0 c3637 0 3665 0 3665 -20z
m-776 -1208 c7 -12 -137 -144 -191 -175 -6 -4 -1220 -7 -2697 -7 -2048 0
-2692 2 -2709 11 -33 18 -159 119 -179 143 -17 21 -16 21 40 27 91 9 5730 10
5736 1z m-379 -281 c29 -7 29 -7 -45 -51 -41 -24 -115 -62 -165 -85 l-90 -40
-2195 -3 c-2470 -2 -2240 -10 -2415 79 -96 49 -145 83 -145 101 0 10 5010 9
5055 -1z"/>
<path d="M5090 8363 c0 -38 3 -85 7 -106 5 -35 8 -38 37 -35 l31 3 3 103 3
102 -41 0 -40 0 0 -67z"/>
<path d="M4710 8364 c-11 -12 -9 -27 10 -82 32 -92 68 -162 83 -162 7 0 22 6
32 14 19 13 18 17 -20 117 -21 57 -43 110 -48 117 -13 17 -42 15 -57 -4z"/>
<path d="M5513 8368 c-5 -7 -15 -29 -23 -48 -7 -19 -26 -66 -43 -104 -30 -66
-30 -69 -12 -82 10 -8 24 -14 31 -14 15 0 107 212 102 237 -4 22 -41 29 -55
11z"/>
<path d="M4290 8181 c0 -32 195 -271 222 -271 4 0 15 11 24 25 16 24 15 27
-27 83 -71 95 -164 182 -193 182 -19 0 -26 -5 -26 -19z"/>
<path d="M5821 8086 c-110 -110 -115 -116 -105 -143 5 -15 17 -29 26 -31 9 -2
57 39 119 103 110 113 133 144 123 169 -14 36 -49 14 -163 -98z"/>
<path d="M5068 7998 c3 -15 2 -19 -7 -14 -6 4 -11 4 -10 -1 4 -22 -2 -25 -15
-7 -13 17 -12 20 2 27 33 15 -87 -4 -140 -22 -80 -28 -228 -122 -228 -145 0
-6 5 -5 12 2 17 17 31 15 24 -4 -3 -9 -2 -12 5 -9 5 4 7 15 4 25 -3 11 0 20
10 24 8 3 15 0 15 -7 0 -7 5 -4 11 5 5 9 15 15 23 12 16 -6 40 21 31 36 -7 11
8 14 19 3 4 -4 15 -8 24 -8 10 0 16 -7 16 -17 -2 -21 7 -23 24 -6 9 9 11 5 8
-20 -2 -18 1 -32 5 -32 5 0 9 11 9 25 0 14 5 25 11 25 6 0 9 -7 5 -15 -3 -8
-1 -15 4 -15 6 0 10 -5 10 -11 0 -5 -4 -7 -10 -4 -5 3 -10 2 -10 -4 0 -17 20
-23 26 -7 7 19 34 9 33 -13 0 -10 -2 -11 -6 -3 -8 20 -22 14 -16 -8 3 -11 9
-20 14 -20 12 0 27 33 22 50 -2 9 1 7 7 -3 9 -14 9 -22 1 -30 -13 -13 -14 -27
-2 -27 5 0 13 9 16 20 3 11 11 20 16 20 5 0 3 -10 -6 -23 -8 -13 -13 -26 -10
-29 3 -2 -2 -5 -10 -5 -8 0 -15 5 -15 11 0 6 -5 4 -10 -4 -8 -13 -11 -12 -25
5 -15 20 -15 20 -9 0 5 -16 4 -17 -5 -5 -6 8 -11 23 -11 32 0 10 -10 20 -25
24 -14 3 -25 13 -25 22 0 21 -10 10 -15 -18 -7 -37 -17 -38 -13 -1 3 31 1 34
-27 37 -24 2 -27 1 -12 -7 9 -6 22 -7 27 -4 6 3 10 1 10 -4 0 -6 -5 -11 -11
-11 -5 0 -7 -4 -4 -10 3 -5 1 -18 -4 -27 -9 -16 -10 -16 -11 -2 0 19 -26 33
-35 19 -3 -4 -2 -16 2 -26 5 -14 3 -16 -11 -11 -10 4 -24 1 -31 -7 -12 -12
-12 -15 0 -20 8 -3 15 -10 15 -16 0 -6 -4 -9 -9 -6 -5 3 -12 -2 -15 -11 -6
-15 -8 -15 -16 -3 -6 9 -5 17 2 21 7 4 7 9 0 13 -16 10 -26 -35 -11 -46 11 -7
11 -11 2 -15 -7 -2 -13 -11 -13 -19 0 -9 4 -13 8 -10 5 3 8 -5 7 -17 -2 -13
-8 -21 -16 -19 -17 4 -30 25 -21 32 4 3 9 21 11 40 3 37 29 90 44 90 4 0 5 5
2 11 -5 6 -13 3 -22 -10 -19 -27 -33 -27 -33 2 0 16 3 18 9 8 6 -9 11 -10 15
-2 4 6 2 12 -3 12 -21 3 -26 4 -39 13 -11 6 -11 4 -3 -13 6 -12 15 -30 21 -41
6 -13 6 -28 0 -46 -6 -14 -8 -29 -5 -34 3 -5 0 -12 -6 -16 -8 -4 -9 -3 -5 4 4
7 1 12 -8 12 -12 0 -11 -7 6 -40 12 -21 26 -36 31 -33 6 4 8 -2 5 -15 -4 -12
-2 -20 3 -16 5 3 9 12 9 20 0 8 5 14 10 14 15 0 13 -8 -17 -67 -29 -56 -33
-59 -64 -43 -11 6 -19 7 -18 3 1 -4 -1 -16 -6 -26 -5 -11 -3 -23 5 -30 9 -9
11 -9 6 0 -8 14 3 43 16 43 5 0 6 -5 2 -12 -5 -8 -2 -9 9 -5 10 4 17 1 17 -5
0 -9 3 -9 12 0 9 9 15 5 26 -21 9 -17 14 -35 14 -39 -1 -5 7 -8 18 -8 14 0 20
7 20 21 0 16 -5 20 -20 16 -11 -3 -20 -1 -20 4 0 5 9 9 19 9 11 0 23 9 26 20
3 11 15 25 27 31 15 8 18 17 14 37 -6 25 -5 26 8 8 14 -18 15 -17 21 7 9 33
35 58 35 33 0 -10 -4 -15 -9 -12 -5 3 -9 0 -8 -7 1 -33 -4 -46 -20 -50 -14 -4
-12 -5 5 -6 15 -1 22 5 22 17 0 22 51 81 57 65 5 -13 33 -6 33 8 0 4 -7 6 -15
3 -9 -4 -15 0 -15 9 0 25 15 28 34 6 10 -12 20 -18 24 -14 4 4 1 10 -6 12 -6
3 -10 9 -7 14 4 5 12 3 19 -4 10 -8 11 -17 4 -30 -8 -17 -7 -18 14 -12 l23 8
-25 -21 c-14 -12 -19 -21 -12 -22 6 0 12 5 12 10 0 6 5 10 11 10 6 0 8 -7 5
-16 -3 -8 -2 -12 4 -9 6 3 10 14 11 23 0 11 3 12 6 5 7 -19 31 -15 45 7 7 11
18 20 24 20 17 0 10 39 -9 53 -16 11 -15 12 7 12 16 0 22 -4 18 -14 -3 -9 -1
-12 6 -7 6 3 14 1 18 -5 4 -7 3 -9 -4 -5 -6 3 -14 1 -18 -5 -3 -6 0 -15 7 -20
11 -7 11 -9 1 -9 -7 0 -10 -5 -7 -11 4 -6 0 -9 -10 -7 -10 2 -20 -3 -23 -11
-3 -10 0 -12 12 -8 9 4 16 2 16 -4 0 -6 7 -3 16 5 8 9 20 16 25 16 5 0 0 -9
-11 -20 -11 -11 -26 -17 -34 -14 -11 4 -13 0 -9 -15 6 -23 23 -29 23 -8 0 8 4
7 10 -3 9 -13 10 -13 11 0 1 8 1 19 0 23 -1 5 3 6 8 3 5 -4 12 0 14 6 4 9 6 8
6 -3 1 -8 -4 -20 -9 -25 -7 -7 -6 -11 4 -11 8 0 13 4 10 9 -3 4 0 8 5 8 6 0
11 -6 11 -12 0 -9 4 -8 10 2 5 8 10 10 10 3 0 -8 6 -8 24 0 14 7 22 18 19 27
-3 10 -1 9 7 -3 6 -9 9 -21 6 -25 -3 -5 1 -9 9 -9 7 0 18 11 24 24 6 13 15 23
21 23 5 0 10 4 10 10 0 5 -6 7 -14 4 -8 -3 -17 -1 -21 5 -3 7 0 8 9 5 10 -4
16 -1 16 7 1 8 8 1 16 -14 13 -24 18 -26 31 -16 13 11 12 14 -7 21 -21 8 -19
28 3 28 7 0 6 -4 -3 -11 -12 -9 -11 -10 6 -6 28 6 26 -17 -4 -48 -25 -26 -30
-44 -7 -25 12 10 15 10 16 -1 0 -8 6 -1 13 15 10 22 14 25 19 12 4 -9 2 -16
-3 -16 -6 0 -10 -4 -10 -10 0 -14 54 -12 68 2 9 9 12 9 12 0 0 -9 39 -12 145
-12 109 0 145 3 145 13 0 8 4 7 10 -3 27 -42 -10 63 -52 149 -18 35 -40 66
-50 69 -10 2 -18 10 -18 16 0 14 -81 96 -134 136 -18 13 -19 13 -12 0 4 -9 1
-8 -7 3 -17 21 -28 22 -21 3 3 -8 0 -17 -7 -22 -7 -4 -10 -3 -6 4 9 14 -1 39
-19 46 -9 3 -12 1 -9 -4 3 -6 0 -10 -8 -10 -9 0 -13 -9 -12 -24 2 -17 -3 -26
-16 -29 -22 -6 -26 8 -5 16 20 8 14 57 -8 69 -10 5 -20 7 -23 4 -4 -3 -12 -1
-20 5 -10 9 -13 6 -13 -18 0 -22 -5 -29 -20 -29 -16 0 -20 6 -18 26 2 16 8 24
18 22 8 -2 12 -1 8 3 -3 4 -9 6 -13 5 -3 -1 -18 6 -32 15 -14 9 -23 12 -19 7
3 -6 2 -13 -4 -17 -13 -8 -13 -35 0 -35 6 0 9 3 9 8 -4 21 3 31 16 26 8 -4 12
-10 9 -15 -3 -5 -10 -6 -16 -3 -6 4 -6 -1 1 -14 13 -24 15 -43 2 -23 -11 17
-32 6 -25 -13 3 -7 -2 -16 -11 -20 -9 -3 -18 1 -22 10 -5 13 -7 13 -15 2 -7
-10 -9 -10 -7 2 3 30 -1 39 -16 34 -8 -4 -15 -10 -15 -16 0 -5 5 -6 11 -2 8 5
8 1 0 -14 -15 -28 -14 -32 7 -25 13 5 14 3 5 -7 -15 -16 -36 -3 -30 20 2 10 0
24 -5 31 -8 11 -9 10 -4 -3 3 -10 1 -20 -3 -23 -13 -7 -21 20 -10 36 12 19 11
29 -2 29 -5 0 -8 -4 -5 -8 3 -5 -4 -16 -15 -25 -10 -9 -19 -12 -19 -7 0 6 -5
10 -11 10 -5 0 -7 -5 -3 -11 4 -8 0 -8 -15 0 -11 7 -21 15 -21 20 0 13 37 51
43 44 4 -3 -3 -14 -15 -25 -12 -10 -18 -21 -15 -25 4 -3 19 4 33 18 14 13 28
23 32 21 3 -2 9 5 13 15 6 15 8 14 8 -7 1 -14 5 -20 9 -15 12 16 32 16 32 -1
0 -8 5 -12 10 -9 6 3 10 10 10 15 0 13 -88 50 -120 50 -24 0 -27 -3 -22 -22z
m57 3 c3 -5 1 -12 -5 -16 -5 -3 -10 -2 -10 4 0 5 -8 12 -17 14 -14 4 -13 5 4
6 12 0 24 -3 28 -8z m-109 -26 c14 -12 -14 -35 -33 -28 -7 3 -13 0 -13 -6 0
-10 13 -15 32 -12 4 0 3 -10 -2 -24 -8 -20 -6 -27 10 -35 27 -14 38 -12 17 4
-11 8 -14 17 -8 20 18 12 31 -27 15 -49 -8 -10 -14 -16 -14 -12 0 18 -2 23
-16 30 -8 4 -19 5 -24 2 -6 -3 -10 -2 -10 4 0 5 5 13 10 16 6 3 10 14 9 23 0
13 -3 12 -11 -5 -6 -13 -15 -23 -20 -23 -5 0 -6 -4 -3 -10 3 -5 1 -10 -4 -10
-14 0 -14 6 3 39 9 17 11 32 5 42 -7 12 -9 12 -10 -1 -1 -8 -1 -21 0 -27 1 -7
-3 -13 -10 -13 -7 0 -9 8 -4 23 4 12 7 30 8 39 1 13 5 14 21 6 15 -8 18 -7 13
5 -6 17 21 18 39 2z m-139 -41 c12 -11 18 -12 23 -4 5 8 9 7 13 -4 10 -24 -8
-28 -35 -6 -14 11 -29 16 -33 12 -5 -4 -5 -1 -1 6 9 16 14 15 33 -4z m492 -24
c0 -10 -3 -8 -9 5 -12 27 -12 43 0 25 5 -8 9 -22 9 -30z m25 24 c9 -24 7 -36
-4 -29 -6 4 -8 11 -5 16 4 5 1 9 -4 9 -6 0 -11 5 -11 10 0 16 17 12 24 -6z
m-600 -29 c-7 -16 -24 -21 -24 -6 0 8 7 13 27 20 1 1 0 -6 -3 -14z m336 -9 c0
-9 -40 -13 -46 -5 -3 5 6 9 20 9 14 0 26 -2 26 -4z m-53 -21 c14 -14 14 -18
-2 -35 -22 -25 -31 -19 -15 9 7 14 7 21 0 21 -5 0 -10 5 -10 10 0 14 9 12 27
-5z m46 -10 c-3 -9 -8 -14 -10 -11 -3 3 -2 9 2 15 9 16 15 13 8 -4z m37 -10
c14 -19 14 -19 -2 -6 -10 7 -18 18 -18 24 0 6 1 8 3 6 1 -2 9 -13 17 -24z
m133 0 c-3 -9 -8 -14 -10 -11 -3 3 -2 9 2 15 9 16 15 13 8 -4z m41 -16 c-9
-10 -21 -16 -25 -13 -5 3 -9 0 -9 -7 0 -7 -3 -10 -6 -6 -3 3 -1 14 5 24 7 12
10 14 11 4 0 -15 14 -6 16 10 3 19 4 20 15 14 7 -5 4 -13 -7 -26z m69 17 c9 3
17 2 17 -4 0 -15 -43 -8 -47 8 -4 11 -2 12 5 2 5 -7 16 -10 25 -6z m-246 -44
c0 -11 -4 -10 -14 4 -7 10 -13 22 -13 26 0 5 6 3 13 -4 8 -7 14 -19 14 -26z
m76 23 c-3 -9 -8 -14 -10 -11 -3 3 -2 9 2 15 9 16 15 13 8 -4z m245 -10 c-3
-3 -9 2 -12 12 -6 14 -5 15 5 6 7 -7 10 -15 7 -18z m-387 -9 c-9 -11 -9 -15 1
-19 7 -3 3 -5 -9 -3 -12 1 -26 6 -30 11 -5 4 -3 5 3 2 6 -3 17 3 24 13 8 11
16 17 18 15 3 -3 0 -11 -7 -19z m187 3 c3 -11 2 -11 -7 1 -10 13 -12 13 -21 0
-5 -8 -10 -10 -10 -4 0 27 31 30 38 3z m-388 -9 c0 -5 -4 -10 -10 -10 -5 0
-10 -5 -10 -11 0 -5 4 -8 9 -4 11 6 26 -33 17 -42 -3 -4 -6 1 -6 10 0 10 -5
17 -11 17 -6 0 -8 -7 -5 -16 3 -9 2 -12 -5 -9 -6 4 -8 13 -5 20 2 7 -1 16 -9
19 -10 3 -12 0 -8 -12 5 -13 3 -14 -7 -5 -13 12 -4 37 11 28 5 -4 12 1 15 9 7
18 24 22 24 6z m250 -23 c0 -4 -6 -2 -14 5 -8 7 -12 17 -9 22 5 8 23 -12 23
-27z m210 29 c0 -2 -8 -10 -17 -17 -16 -13 -17 -12 -4 4 13 16 21 21 21 13z
m-435 -16 c3 -5 1 -10 -4 -10 -6 0 -11 5 -11 10 0 6 2 10 4 10 3 0 8 -4 11
-10z m275 -15 c10 -14 10 -17 1 -8 -7 6 -21 9 -29 5 -14 -5 -15 -4 -2 10 8 9
15 15 15 14 1 0 7 -10 15 -21z m330 21 c0 -3 -4 -8 -10 -11 -5 -3 -10 -1 -10
4 0 6 5 11 10 11 6 0 10 -2 10 -4z m-696 -33 c4 -9 1 -21 -5 -27 -9 -8 -10 -6
-6 7 6 15 3 17 -15 11 -20 -6 -21 -5 -9 10 17 20 27 20 35 -1z m236 2 c0 -1
-6 -8 -14 -15 -12 -9 -15 -8 -13 8 0 12 6 18 14 15 7 -3 13 -6 13 -8z m-245
-48 c12 -3 7 -5 -11 -4 -23 1 -30 5 -27 15 4 8 8 10 12 4 3 -5 15 -12 26 -15z
m176 -4 c-12 -20 -14 -14 -5 12 4 9 9 14 11 11 3 -2 0 -13 -6 -23z m-150 -24
c-21 -17 -22 -22 -10 -29 7 -5 15 -14 15 -20 3 -23 5 -24 14 -10 9 13 10 13
10 0 0 -8 -9 -21 -20 -28 -11 -7 -20 -19 -20 -27 0 -8 -4 -15 -10 -15 -14 0
-12 13 5 36 18 24 19 31 0 31 -16 0 -16 -1 -20 -35 -1 -13 -14 -36 -29 -50
l-27 -27 6 30 c4 20 3 26 -3 17 -8 -11 -10 -11 -15 1 -3 7 -1 20 4 28 6 10 9
10 9 2 0 -7 4 -13 10 -13 5 0 7 7 4 15 -4 8 -12 15 -19 15 -20 0 -26 62 -8 80
12 11 17 12 20 3 3 -7 9 -13 14 -13 6 0 8 4 5 9 -4 5 2 7 12 5 9 -3 28 -1 42
5 36 14 38 13 11 -10z m88 8 c-8 -7 -21 -21 -27 -32 -6 -11 -12 -14 -12 -7 0
13 35 52 48 52 4 0 0 -6 -9 -13z m35 -2 c-4 -8 -10 -15 -15 -15 -5 0 -22 -21
-39 -47 -26 -42 -29 -45 -28 -21 1 15 6 25 10 22 4 -3 12 6 19 18 10 18 47 56
56 58 1 0 0 -7 -3 -15z m-87 -27 c-3 -8 -6 -5 -6 6 -1 11 2 17 5 13 3 -3 4
-12 1 -19z m188 -27 c-3 -5 -1 -12 5 -16 5 -3 10 -12 10 -18 0 -8 -4 -7 -9 2
-11 17 -41 24 -41 10 0 -5 5 -9 12 -9 6 0 9 -2 6 -5 -11 -11 -37 7 -31 21 3 9
12 13 19 10 7 -3 16 -1 19 4 4 6 8 10 11 10 3 0 3 -4 -1 -9z m408 -11 c-3 -11
-9 -20 -15 -20 -5 0 -4 9 2 20 6 11 12 20 14 20 2 0 2 -9 -1 -20z m-375 -15
c-3 -3 -9 2 -12 12 -6 14 -5 15 5 6 7 -7 10 -15 7 -18z m94 6 c3 8 7 9 10 4 3
-6 0 -15 -7 -22 -10 -9 -15 -6 -24 15 -10 24 -10 25 3 9 10 -13 15 -14 18 -6z
m122 -7 c3 -8 2 -12 -4 -9 -6 3 -10 10 -10 16 0 14 7 11 14 -7z m-58 -28 c-2
-15 -31 -46 -43 -46 -4 1 3 10 16 20 13 11 20 20 17 20 -4 0 -4 5 -1 10 9 14
14 12 11 -4z m232 -21 c-6 -14 -13 -23 -15 -21 -5 5 15 46 22 46 3 0 -1 -11
-7 -25z m-291 -17 c-3 -8 -6 -5 -6 6 -1 11 2 17 5 13 3 -3 4 -12 1 -19z m241
-3 c-3 -3 -9 2 -12 12 -6 14 -5 15 5 6 7 -7 10 -15 7 -18z m93 8 c13 -16 12
-17 -3 -4 -10 7 -18 15 -18 17 0 8 8 3 21 -13z m-803 -48 c-3 -3 -9 2 -12 12
-6 14 -5 15 5 6 7 -7 10 -15 7 -18z m72 13 c0 -6 -3 -9 -6 -5 -4 3 -15 -4 -24
-16 -10 -12 -21 -19 -25 -16 -7 7 33 49 47 49 4 0 8 -5 8 -12z"/>
<path d="M4741 7682 c-1 -23 30 -73 42 -69 7 2 12 20 12 40 0 27 -4 36 -13 32
-8 -3 -16 -5 -19 -5 -3 0 0 -7 7 -15 9 -11 9 -15 1 -15 -6 0 -16 10 -21 23 -5
12 -9 16 -9 9z"/>
<path d="M4800 7661 c0 -12 28 -22 35 -12 3 5 -2 12 -11 15 -21 8 -24 8 -24
-3z"/>
<path d="M4776 7585 c-9 -26 -7 -32 5 -12 6 10 9 21 6 23 -2 3 -7 -2 -11 -11z"/>
<path d="M5176 8008 c3 -5 10 -6 15 -3 13 9 11 12 -6 12 -8 0 -12 -4 -9 -9z"/>
<path d="M5207 8004 c-3 -3 0 -15 6 -25 9 -15 9 -21 0 -27 -9 -6 -8 -15 6 -36
12 -17 21 -24 25 -17 4 6 1 11 -6 11 -10 0 -9 3 1 9 13 8 13 12 1 26 -11 14
-11 18 0 25 7 4 10 15 7 24 -6 16 -28 21 -40 10z"/>
<path d="M5160 7945 c0 -9 6 -12 15 -9 8 4 12 10 9 15 -8 14 -24 10 -24 -6z"/>
<path d="M5100 7939 c0 -5 5 -7 10 -4 6 3 10 8 10 11 0 2 -4 4 -10 4 -5 0 -10
-5 -10 -11z"/>
<path d="M5310 7940 c0 -5 5 -10 10 -10 6 0 10 5 10 10 0 6 -4 10 -10 10 -5 0
-10 -4 -10 -10z"/>
<path d="M4067 7903 c-4 -3 -7 -17 -7 -30 0 -19 13 -29 75 -58 41 -20 94 -51
118 -69 76 -58 85 -61 99 -30 11 24 10 29 -17 51 -43 35 -227 143 -246 143 -9
0 -19 -3 -22 -7z"/>
<path d="M4816 7893 c-6 -14 -5 -15 5 -6 7 7 10 15 7 18 -3 3 -9 -2 -12 -12z"/>
<path d="M4840 7895 c0 -8 2 -15 4 -15 2 0 6 7 10 15 3 8 1 15 -4 15 -6 0 -10
-7 -10 -15z"/>
<path d="M6065 7854 c-111 -55 -175 -97 -175 -114 0 -9 6 -24 13 -33 11 -16
17 -15 72 15 33 18 92 46 130 63 106 47 109 48 101 79 -9 37 -53 34 -141 -10z"/>
<path d="M3249 7796 c-114 -41 -199 -142 -199 -239 0 -46 16 -69 56 -81 20 -6
21 -2 27 63 7 88 14 101 79 142 46 30 61 34 119 34 57 0 71 -4 103 -29 52 -39
73 -78 81 -147 4 -33 12 -62 17 -65 30 -19 -49 -24 -364 -24 -333 0 -348 -1
-358 -19 -14 -28 3 -67 32 -72 13 -2 196 -2 408 1 l385 5 -1 45 c-2 69 -29
192 -52 236 -27 51 -107 129 -154 149 -45 18 -130 19 -179 1z"/>
<path d="M4636 7775 c-9 -26 -7 -32 5 -12 6 10 9 21 6 23 -2 3 -7 -2 -11 -11z"/>
<path d="M4577 7743 c-4 -3 -7 -11 -7 -17 0 -6 5 -5 12 2 6 6 9 14 7 17 -3 3
-9 2 -12 -2z"/>
<path d="M4627 7720 c3 -11 7 -20 9 -20 2 0 4 9 4 20 0 11 -4 20 -9 20 -5 0
-7 -9 -4 -20z"/>
<path d="M4595 7719 c-4 -6 -5 -12 -2 -15 2 -3 7 2 10 11 7 17 1 20 -8 4z"/>
<path d="M4549 7698 c-7 -12 -4 -76 2 -72 5 3 9 12 9 20 0 9 5 12 12 8 6 -4 8
-3 5 3 -4 6 0 14 9 17 9 4 14 9 11 13 -4 3 -13 0 -22 -7 -9 -7 -19 -10 -22 -6
-4 4 -1 11 7 16 10 7 11 10 3 10 -7 0 -14 -1 -14 -2z"/>
<path d="M4614 7616 c-3 -8 -2 -22 3 -31 9 -15 11 -15 23 0 11 13 10 14 -5 9
-15 -6 -17 -3 -13 14 7 25 0 30 -8 8z"/>
<path d="M4566 7612 c-2 -4 4 -8 14 -8 10 0 16 4 14 8 -3 4 -9 8 -14 8 -5 0
-11 -4 -14 -8z"/>
<path d="M4948 7593 c-28 -33 -39 -60 -23 -60 8 0 12 4 10 8 -7 11 6 39 17 39
6 0 8 -6 5 -13 -3 -8 -1 -20 5 -28 8 -12 9 -12 5 1 -2 8 -1 22 4 31 13 25 -5
43 -23 22z"/>
<path d="M4659 7579 c-7 -11 -26 -27 -41 -35 -16 -8 -28 -19 -28 -24 0 -6 11
-3 25 6 17 11 25 12 25 5 0 -7 5 -9 10 -6 6 3 10 1 10 -6 0 -12 15 -3 15 9 0
4 4 13 9 20 4 7 5 16 2 19 -3 4 -6 1 -6 -6 0 -7 -5 -9 -10 -6 -8 5 -7 11 1 21
6 8 10 16 7 19 -2 2 -11 -5 -19 -16z m6 -29 c3 -5 1 -10 -4 -10 -6 0 -11 5
-11 10 0 6 2 10 4 10 3 0 8 -4 11 -10z"/>
<path d="M4570 7574 c6 -6 6 -15 2 -20 -4 -4 1 -2 11 5 22 18 22 27 -2 27 -14
0 -17 -4 -11 -12z"/>
<path d="M4895 7570 c4 -6 11 -8 16 -5 14 9 11 15 -7 15 -8 0 -12 -5 -9 -10z"/>
<path d="M5070 7560 c-8 -5 -18 -6 -22 -4 -10 6 -23 -24 -14 -33 3 -3 16 2 28
13 19 17 21 17 15 2 -7 -19 7 -25 18 -8 10 17 -9 40 -25 30z"/>
<path d="M5340 7560 c0 -5 5 -10 11 -10 5 0 7 5 4 10 -3 6 -8 10 -11 10 -2 0
-4 -4 -4 -10z"/>
<path d="M4874 7545 c-4 -9 -4 -19 0 -22 3 -4 6 2 6 13 0 16 2 17 10 4 6 -9
10 -10 10 -3 0 19 -20 26 -26 8z"/>
<path d="M5320 7539 c0 -11 4 -18 10 -14 5 3 7 12 3 20 -7 21 -13 19 -13 -6z"/>
<path d="M4981 7533 c0 -10 3 -13 5 -6 3 7 13 9 22 6 15 -4 15 -3 2 6 -22 15
-30 14 -29 -6z"/>
<path d="M4641 7454 c0 -11 3 -14 6 -6 3 7 2 16 -1 19 -3 4 -6 -2 -5 -13z"/>
<path d="M4667 7439 c3 -10 9 -17 13 -14 5 3 10 -1 13 -7 2 -7 7 -10 11 -7 11
10 -8 44 -25 45 -11 1 -15 -5 -12 -17z"/>
<path d="M5213 7393 c9 -2 23 -2 30 0 6 3 -1 5 -18 5 -16 0 -22 -2 -12 -5z"/>
<path d="M5283 7393 c15 -2 39 -2 55 0 15 2 2 4 -28 4 -30 0 -43 -2 -27 -4z"/>
<path d="M5500 7395 c0 -8 29 -12 39 -5 9 5 4 8 -13 8 -14 0 -26 -2 -26 -3z"/>
<path d="M5566 7386 c3 -9 9 -14 13 -12 4 3 7 -4 7 -15 0 -18 -1 -19 -12 -4
-10 13 -17 14 -32 6 -15 -8 -22 -8 -26 2 -4 8 -5 7 -4 -3 2 -21 -13 -51 -22
-45 -4 3 -10 -1 -13 -9 -4 -9 3 -16 18 -20 26 -7 55 1 55 15 0 5 5 9 11 9 7 0
6 -8 -4 -22 -8 -13 -21 -22 -27 -20 -6 1 -8 -2 -5 -8 5 -8 13 -6 24 4 20 18
35 21 26 6 -3 -5 -2 -10 2 -10 5 0 14 9 21 21 8 12 9 18 3 15 -5 -4 -12 -2
-16 4 -3 5 3 10 13 10 11 0 23 -7 26 -16 9 -22 8 -24 -9 -18 -8 4 -15 1 -15
-5 0 -6 8 -11 17 -11 12 0 14 -3 6 -11 -8 -8 -8 -20 -1 -40 5 -16 7 -36 4 -44
-3 -8 -1 -15 5 -15 16 0 -19 -31 -39 -35 -9 -2 -50 -4 -90 -4 -43 -1 -71 -5
-67 -10 3 -6 19 -8 35 -6 16 2 32 -1 36 -6 3 -5 9 -7 14 -4 5 3 11 -4 14 -15
3 -11 8 -29 11 -39 3 -10 -2 -26 -10 -35 -27 -27 -7 -36 80 -36 l84 0 25 43
c42 71 85 237 86 330 l0 57 -72 0 c-40 0 -97 3 -126 6 -45 6 -51 4 -46 -10z
m79 -6 c3 -5 1 -10 -4 -10 -6 0 -11 5 -11 10 0 6 2 10 4 10 3 0 8 -4 11 -10z
m-90 -39 c3 -5 1 -12 -5 -16 -5 -3 -10 1 -10 9 0 18 6 21 15 7z m-30 -41 c-3
-5 -10 -10 -16 -10 -5 0 -9 5 -9 10 0 6 7 10 16 10 8 0 12 -4 9 -10z"/>
<path d="M5430 7306 c7 -7 13 -7 20 0 6 6 3 10 -10 10 -13 0 -16 -4 -10 -10z"/>
<path d="M7345 7194 c-85 -43 -145 -113 -145 -167 0 -21 -6 -25 -46 -31 -74
-10 -109 -38 -149 -120 -29 -57 -36 -82 -33 -117 l3 -44 427 0 c326 0 430 3
439 12 18 18 23 120 10 169 -6 23 -21 54 -33 69 -25 32 -91 64 -130 65 -21 0
-29 7 -38 34 -15 48 -73 111 -123 135 -59 28 -120 27 -182 -5z m141 -90 c53
-25 82 -66 89 -129 l7 -55 69 0 c67 0 70 -1 89 -32 11 -18 20 -45 20 -60 l0
-28 -345 0 c-190 0 -345 3 -345 8 0 4 10 25 23 46 28 50 65 62 131 42 45 -14
46 -13 47 7 5 111 20 152 66 185 53 36 96 41 149 16z"/>
<path d="M4943 7103 c9 -2 25 -2 35 0 9 3 1 5 -18 5 -19 0 -27 -2 -17 -5z"/>
<path d="M2994 7059 c-123 -15 -231 -73 -341 -181 -76 -76 -109 -134 -138
-243 -44 -172 14 -399 135 -522 85 -87 259 -183 332 -183 44 0 47 -10 50 -140
l3 -125 30 -3 c47 -6 55 16 55 149 l0 118 58 16 c148 43 259 125 344 254 69
105 93 190 93 321 -1 82 -6 120 -24 172 -39 117 -134 238 -238 301 -90 56
-229 82 -359 66z m172 -110 c40 -10 55 -23 121 -103 41 -50 89 -120 107 -156
28 -60 31 -73 31 -165 0 -94 -2 -105 -33 -168 -32 -65 -77 -117 -211 -241 -30
-28 -50 -54 -47 -62 3 -8 1 -14 -4 -14 -6 0 -10 79 -11 203 -1 262 -4 285 -48
314 -43 29 -79 39 -93 25 -13 -13 10 -112 31 -129 12 -11 15 -50 17 -219 l2
-207 -48 6 c-81 10 -201 81 -273 161 -67 76 -117 200 -117 290 0 54 27 160 58
226 43 91 164 196 272 233 53 19 182 22 246 6z"/>
<path d="M5507 7056 c-4 -10 -1 -13 8 -9 8 3 12 9 9 14 -7 12 -11 11 -17 -5z"/>
<path d="M5362 6834 c-7 -8 -8 -14 -3 -14 10 0 25 19 20 25 -2 1 -10 -3 -17
-11z"/>
<path d="M8005 5860 c-11 -4 -35 -24 -54 -43 -27 -29 -35 -46 -39 -87 -5 -50
-4 -51 47 -101 l51 -52 56 5 c50 4 62 10 90 41 42 46 52 94 29 152 -23 62 -65
95 -118 94 -23 0 -51 -4 -62 -9z"/>
<path d="M8216 5543 c-6 -14 -5 -15 5 -6 7 7 10 15 7 18 -3 3 -9 -2 -12 -12z"/>
<path d="M8220 5439 c0 -5 5 -7 10 -4 6 3 10 8 10 11 0 2 -4 4 -10 4 -5 0 -10
-5 -10 -11z"/>
<path d="M8190 4719 c0 -5 5 -7 10 -4 6 3 10 8 10 11 0 2 -4 4 -10 4 -5 0 -10
-5 -10 -11z"/>
<path d="M8180 4435 c0 -8 4 -15 8 -15 5 0 9 7 9 15 0 8 -4 15 -9 15 -4 0 -8
-7 -8 -15z"/>
<path d="M8180 4394 c0 -8 5 -12 10 -9 6 4 8 11 5 16 -9 14 -15 11 -15 -7z"/>
<path d="M8180 4359 c0 -5 5 -7 10 -4 6 3 10 8 10 11 0 2 -4 4 -10 4 -5 0 -10
-5 -10 -11z"/>
<path d="M8180 4329 c0 -5 5 -7 10 -4 6 3 10 8 10 11 0 2 -4 4 -10 4 -5 0 -10
-5 -10 -11z"/>
<path d="M8185 4109 c-4 -6 -5 -12 -2 -15 2 -3 7 2 10 11 7 17 1 20 -8 4z"/>
<path d="M8188 4074 c-5 -4 -8 -16 -8 -28 0 -14 3 -17 11 -9 6 6 9 19 7 28 -1
9 -6 13 -10 9z"/>
<path d="M8211 4054 c0 -11 3 -14 6 -6 3 7 2 16 -1 19 -3 4 -6 -2 -5 -13z"/>
<path d="M2110 5716 c0 -7 16 -48 36 -90 75 -164 74 -150 74 -886 0 -461 -3
-667 -11 -689 -13 -36 -5 -51 30 -54 11 -1 21 -5 21 -10 0 -4 6 -2 14 5 8 7
12 16 10 20 -3 4 5 15 16 26 19 18 20 28 17 718 -4 774 -2 749 -70 861 -43 70
-64 91 -106 103 -23 6 -31 5 -31 -4z"/>
<path d="M1737 5413 c-4 -3 -7 -19 -7 -35 0 -25 4 -29 23 -26 17 2 23 11 25
36 3 26 0 32 -16 32 -10 0 -22 -3 -25 -7z"/>
<path d="M1727 5234 c-4 -4 -7 -38 -7 -76 0 -64 2 -69 25 -78 47 -18 56 -5 53
79 l-3 76 -30 3 c-17 2 -34 0 -38 -4z"/>
<path d="M1725 4958 c-2 -7 -3 -188 -2 -403 l2 -390 30 0 30 0 6 150 c9 210
10 507 2 588 -6 66 -6 67 -35 67 -16 0 -30 -6 -33 -12z"/>
<path d="M2175 3970 c-3 -5 1 -10 10 -10 9 0 13 5 10 10 -3 6 -8 10 -10 10 -2
0 -7 -4 -10 -10z"/>
<path d="M7709 4745 c-40 -27 -54 -61 -40 -98 13 -33 58 -67 90 -67 28 0 72
39 84 73 14 40 -41 117 -83 117 -8 0 -32 -11 -51 -25z"/>
<path d="M2916 4528 c-29 -24 -48 -100 -28 -112 5 -3 26 1 46 9 19 8 47 15 61
15 31 0 31 13 2 65 -27 48 -46 53 -81 23z"/>
<path d="M7050 4526 c0 -2 7 -7 16 -10 8 -3 12 -2 9 4 -6 10 -25 14 -25 6z"/>
<path d="M7026 4375 c4 -8 8 -15 10 -15 2 0 4 7 4 15 0 8 -4 15 -10 15 -5 0
-7 -7 -4 -15z"/>
<path d="M4093 4320 c-90 -54 -92 -175 -4 -219 45 -23 82 -26 114 -10 70 36
90 91 62 165 -29 77 -105 105 -172 64z m81 -89 c10 -16 -5 -41 -24 -41 -19 0
-34 25 -24 41 3 5 14 9 24 9 10 0 21 -4 24 -9z"/>
<path d="M6006 4315 c-32 -30 -46 -64 -46 -114 0 -49 28 -85 84 -106 55 -21
103 -9 141 36 48 57 24 168 -43 198 -43 20 -107 13 -136 -14z"/>
<path d="M2266 3664 c-3 -9 -6 -62 -6 -118 0 -100 1 -103 25 -114 14 -7 28
-12 30 -12 3 0 5 30 5 66 l0 66 65 -61 c36 -33 72 -61 80 -61 12 0 15 21 15
120 l0 120 -25 0 c-24 0 -25 -3 -25 -60 l0 -60 -47 54 c-63 71 -105 92 -117
60z"/>
<path d="M2955 3662 c-39 -24 -65 -64 -72 -108 -5 -30 -1 -39 39 -79 39 -38
51 -45 85 -45 61 0 93 30 93 86 0 38 -3 44 -24 50 -44 11 -81 1 -84 -22 -2
-16 4 -25 25 -32 24 -8 26 -11 10 -17 -27 -11 -87 20 -87 45 0 11 12 34 28 50
25 30 29 31 69 22 38 -9 43 -8 49 10 15 47 -76 75 -131 40z"/>
<path d="M3725 3672 c-32 -7 -63 -32 -86 -69 -19 -31 -20 -39 -10 -73 22 -74
113 -121 167 -85 33 21 68 98 60 131 -9 33 -62 91 -89 96 -12 2 -31 2 -42 0z
m74 -84 c24 -64 -52 -115 -99 -68 -34 34 2 90 57 90 26 0 36 -5 42 -22z"/>
<path d="M4290 3663 c-14 -9 -37 -27 -52 -41 -65 -60 -7 -182 94 -198 28 -5
40 1 76 31 40 35 72 81 72 105 0 23 -83 100 -119 110 -46 13 -42 13 -71 -7z
m88 -69 c26 -18 27 -34 7 -74 -12 -23 -23 -30 -44 -30 -48 0 -74 54 -47 95 19
29 51 32 84 9z"/>
<path d="M5205 3661 c-44 -26 -85 -78 -85 -107 0 -61 71 -134 129 -134 51 0
89 25 96 64 4 18 5 44 3 57 -3 22 -8 24 -53 24 -43 0 -50 -3 -50 -20 0 -13 8
-21 23 -23 12 -2 22 -8 22 -13 0 -17 -43 -27 -65 -16 -27 14 -35 27 -35 59 0
47 74 92 95 58 12 -20 35 -10 35 15 0 17 -9 29 -30 40 -37 19 -48 19 -85 -4z"/>
<path d="M5410 3550 l0 -131 28 3 c23 3 27 8 30 41 2 20 7 37 12 37 6 0 21
-18 35 -40 20 -32 31 -40 55 -40 36 0 37 9 8 60 -21 36 -21 40 -6 57 30 33 27
75 -7 109 -21 21 -33 25 -78 23 -30 -1 -59 1 -65 5 -9 5 -12 -26 -12 -124z
m115 35 c0 -13 -8 -21 -24 -23 -28 -4 -46 11 -37 33 9 25 61 16 61 -10z"/>
<path d="M6594 3648 c3 -18 22 -57 42 -85 30 -43 35 -60 32 -93 -2 -27 1 -41
10 -45 33 -12 39 -4 45 53 4 44 13 69 41 111 37 55 43 75 26 86 -19 12 -46 -5
-63 -40 -22 -45 -38 -44 -66 5 -17 30 -28 40 -48 40 -23 0 -25 -3 -19 -32z"/>
<path d="M7216 3673 c-65 -4 -68 -5 -62 -26 3 -12 6 -27 6 -33 0 -6 13 -9 30
-6 l30 4 0 -83 c0 -89 5 -103 33 -105 15 -2 17 9 17 91 l0 94 33 3 c28 3 32 6
32 33 0 34 -1 34 -119 28z"/>
<path d="M7405 3639 c-37 -35 -45 -48 -45 -78 0 -68 69 -141 132 -141 59 0
117 85 104 154 -10 50 -79 106 -132 106 -8 0 -35 -19 -59 -41z m115 -49 c24
-24 25 -48 4 -78 -29 -42 -94 -21 -94 30 0 60 51 87 90 48z"/>
<path d="M7644 3603 c3 -42 6 -102 6 -134 0 -56 1 -58 23 -50 15 6 24 19 27
41 7 47 25 48 55 1 18 -30 32 -41 50 -41 31 0 32 21 4 60 l-22 28 22 28 c56
72 -12 143 -138 144 l-34 0 7 -77z m104 8 c23 -14 10 -46 -21 -49 -23 -3 -27
0 -27 21 0 36 19 47 48 28z"/>
<path d="M7880 3548 l0 -128 33 0 c17 0 56 3 85 6 46 6 52 9 52 30 0 20 -5 23
-47 26 -35 2 -49 7 -51 20 -2 13 5 17 35 20 33 3 38 6 41 31 3 27 2 28 -35 25
-33 -3 -38 0 -41 19 -3 20 2 22 45 25 44 3 48 5 48 28 0 25 -1 25 -82 25 l-83
0 0 -127z"/>
<path d="M2534 3648 c3 -13 6 -67 6 -120 l0 -98 80 0 80 0 0 30 c0 28 -2 30
-39 30 -83 0 -98 27 -18 32 44 3 52 6 52 23 0 17 -8 20 -52 23 -45 3 -53 6
-53 23 0 17 7 19 60 19 l60 0 0 30 0 30 -91 0 c-90 0 -91 0 -85 -22z"/>
<path d="M2772 3548 l3 -123 25 0 c25 0 25 1 28 100 4 126 -1 145 -33 145
l-26 0 3 -122z"/>
<path d="M3160 3550 l0 -120 30 0 c29 0 30 2 30 45 l0 45 40 0 c42 0 41 1 44
-65 1 -14 9 -21 29 -23 l28 -3 -3 118 -3 118 -27 3 c-27 3 -28 1 -28 -37 l0
-41 -45 0 -45 0 0 40 c0 36 -2 40 -25 40 l-25 0 0 -120z"/>
<path d="M3410 3550 l0 -120 74 0 c66 0 78 3 105 26 34 28 39 55 16 74 -10 8
-15 31 -15 66 0 66 -12 74 -109 74 l-71 0 0 -120z m125 60 c9 -15 -14 -40 -36
-40 -14 0 -19 7 -19 25 0 20 5 25 24 25 14 0 28 -5 31 -10z m5 -104 c0 -14
-56 -33 -67 -22 -3 3 -3 12 0 21 8 20 67 21 67 1z"/>
<path d="M3897 3663 c-3 -4 -3 -59 0 -121 l6 -113 31 3 c25 2 32 8 34 31 4 34
29 35 44 2 7 -15 20 -25 32 -25 15 0 17 3 8 12 -7 7 -12 18 -12 26 0 20 39 72
55 72 17 0 28 -61 15 -94 -9 -23 -7 -26 14 -26 31 0 36 20 36 143 l0 98 -27
-3 c-24 -3 -28 -8 -31 -41 -4 -45 -12 -44 -44 3 -23 33 -27 35 -90 38 -36 2
-68 -1 -71 -5z m118 -73 c4 -6 -5 -10 -19 -10 -14 0 -26 5 -26 10 0 6 9 10 19
10 11 0 23 -4 26 -10z"/>
<path d="M4568 3652 c-43 -28 -68 -67 -68 -105 0 -30 8 -42 51 -81 67 -60 88
-60 150 3 53 52 60 80 34 131 -33 64 -112 89 -167 52z m94 -59 c37 -33 11
-103 -38 -103 -24 0 -64 42 -64 68 0 45 66 68 102 35z"/>
<path d="M4788 3549 c-2 -68 -4 -125 -4 -126 1 -1 29 2 64 6 73 9 109 31 136
86 19 38 19 39 0 73 -29 53 -65 75 -133 80 l-59 4 -4 -123z m112 51 c51 -27
45 -79 -11 -99 -48 -17 -49 -16 -49 49 0 54 2 60 21 60 11 0 29 -5 39 -10z"/>
<path d="M5675 3635 c-59 -59 -59 -113 0 -172 57 -57 140 -40 180 37 8 16 15
36 15 45 0 32 -34 88 -64 106 -49 30 -90 25 -131 -16z m125 -54 c22 -41 -2
-91 -43 -91 -25 0 -67 37 -67 58 0 47 88 73 110 33z"/>
<path d="M5935 3633 c-30 -30 -35 -43 -35 -81 0 -41 5 -50 45 -89 35 -33 53
-43 78 -43 36 0 77 34 77 63 0 14 -9 17 -57 15 -52 -3 -58 -1 -72 24 -23 40
-5 83 34 82 17 0 38 -4 47 -8 26 -12 41 25 22 52 -12 17 -25 22 -59 22 -38 0
-49 -5 -80 -37z"/>
<path d="M6150 3548 l0 -123 85 3 85 3 0 30 c0 29 -1 29 -54 29 -55 0 -81 15
-55 31 8 5 31 9 52 9 30 0 37 4 37 20 0 17 -7 20 -45 20 -37 0 -45 3 -45 19 0
23 35 34 79 25 29 -6 31 -5 31 25 l0 31 -85 0 -85 0 0 -122z"/>
<path d="M6380 3547 c0 -68 3 -126 6 -129 3 -3 13 -4 23 -1 13 3 21 18 25 44
3 21 11 39 16 39 5 0 22 -18 36 -40 21 -31 33 -40 55 -40 37 0 37 14 -1 57
l-30 34 25 33 c32 42 32 61 -4 97 -26 26 -36 29 -90 29 l-61 0 0 -123z m110
43 c0 -20 -33 -36 -50 -25 -14 9 -12 43 3 48 22 7 47 -5 47 -23z"/>
<path d="M6970 3650 c-41 -41 -10 -120 46 -120 28 0 51 -27 37 -41 -8 -8 -17
-8 -31 0 -35 19 -72 14 -72 -9 0 -22 52 -60 82 -60 50 0 102 58 91 100 -7 26
-35 50 -69 59 -16 4 -31 15 -32 25 -3 15 2 17 42 11 49 -8 55 -1 36 36 -15 28
-102 27 -130 -1z"/>
<path d="M1700 3590 c-28 -7 -39 -42 -20 -66 25 -30 110 -11 110 25 0 33 -43
53 -90 41z"/>
<path d="M8485 3570 c-9 -30 13 -52 48 -48 65 6 57 68 -9 68 -24 0 -34 -5 -39
-20z"/>
<path d="M6340 3090 c-14 -4 -48 -8 -77 -9 -93 -2 -105 -18 -48 -68 l35 -31 0
-312 0 -312 -30 -26 c-16 -15 -30 -34 -30 -44 0 -17 11 -18 133 -15 l132 4 3
26 c3 22 -2 27 -30 35 l-33 8 0 225 c0 123 2 292 5 374 5 145 4 150 -15 152
-11 1 -31 -2 -45 -7z"/>
<path d="M3753 3083 c-35 -2 -63 -8 -63 -13 0 -5 12 -23 28 -41 25 -30 27 -41
30 -130 l4 -98 -73 26 c-93 32 -159 28 -221 -14 -54 -36 -104 -102 -119 -156
-15 -54 -6 -198 16 -257 15 -42 15 -46 -1 -55 -24 -14 -54 -44 -54 -53 0 -10
192 -27 300 -26 86 1 199 36 255 78 l34 26 1 327 c1 181 3 342 4 358 1 28 -1
30 -39 31 -22 0 -68 -1 -102 -3z m-72 -383 c56 -29 70 -57 70 -135 0 -88 -22
-133 -81 -162 -84 -43 -149 -24 -190 58 -25 48 -26 137 -4 186 9 19 33 45 53
59 42 29 86 27 152 -6z"/>
<path d="M5927 3032 c-32 -34 -33 -50 -7 -102 35 -69 77 -75 125 -19 32 39 32
79 -1 118 -34 41 -79 42 -117 3z"/>
<path d="M4206 3028 c-29 -25 -48 -78 -36 -97 4 -7 25 -15 46 -17 31 -4 45 0
66 18 53 45 44 100 -18 113 -25 5 -37 1 -58 -17z"/>
<path d="M5058 3039 c-24 -13 -23 -39 1 -39 22 0 76 -58 86 -92 10 -31 149
-360 229 -538 36 -83 70 -145 78 -145 21 0 128 236 223 492 53 143 109 246
151 280 61 49 43 57 -110 49 -77 -4 -133 -11 -137 -18 -12 -19 1 -35 32 -42
49 -9 42 -35 -84 -359 -30 -75 -57 -140 -60 -143 -3 -3 -13 19 -22 48 -10 29
-31 84 -47 122 -17 39 -48 122 -70 185 l-40 115 25 22 c14 12 31 24 38 26 7 2
9 12 5 26 -7 21 -12 22 -144 22 -75 0 -145 -5 -154 -11z"/>
<path d="M7492 2870 c-35 -21 -72 -74 -72 -103 0 -10 7 -32 16 -49 15 -29 15
-32 -6 -60 -41 -55 -8 -158 62 -194 43 -22 129 -18 169 9 88 59 102 142 36
214 l-20 22 27 31 c14 17 26 38 26 45 0 20 -48 73 -81 90 -41 22 -117 19 -157
-5z m122 -72 c31 -13 41 -40 26 -68 -8 -15 -21 -20 -53 -20 -52 0 -63 7 -73
44 -12 48 41 72 100 44z m34 -180 c17 -17 15 -48 -5 -70 -21 -23 -104 -25
-127 -2 -16 15 -22 65 -9 77 11 12 128 8 141 -5z"/>
<path d="M7926 2869 c-15 -11 -35 -38 -46 -59 l-20 -39 24 -29 c36 -42 40 -71
16 -112 -45 -78 -45 -79 -25 -116 45 -84 177 -95 259 -23 75 65 85 181 27 304
-24 53 -37 69 -65 80 -54 23 -138 19 -170 -6z m152 -92 c12 -11 22 -32 22 -45
0 -24 -1 -25 -69 -20 -87 6 -93 10 -79 49 17 50 79 58 126 16z m32 -166 c0
-15 -9 -40 -21 -55 -17 -22 -29 -26 -69 -26 -53 0 -67 11 -72 55 -3 29 -2 29
67 41 39 6 76 12 83 13 7 0 12 -11 12 -28z"/>
<path d="M2098 2841 l-33 -29 0 -154 c0 -214 -4 -208 160 -208 115 0 125 2
135 21 6 11 10 30 8 42 -3 21 -6 22 -104 19 -113 -4 -120 -1 -110 53 l7 34 67
3 67 3 3 37 3 37 -73 3 -73 3 3 35 c2 19 6 37 9 40 2 3 48 5 101 5 86 0 97 2
100 18 2 11 -6 30 -19 43 -21 22 -30 24 -121 24 -94 0 -99 -1 -130 -29z"/>
<path d="M2521 2836 c-27 -43 -29 -82 -3 -70 23 11 192 17 192 7 0 -4 -29 -66
-64 -138 -69 -139 -80 -172 -66 -195 17 -28 54 5 105 96 61 109 165 315 165
326 0 4 -69 8 -154 8 l-154 0 -21 -34z"/>
<path d="M4185 2825 c-90 -26 -130 -43 -133 -57 -3 -17 34 -77 53 -85 9 -3 24
2 35 12 48 43 151 37 189 -12 35 -43 28 -61 -26 -68 -112 -15 -150 -27 -215
-70 -78 -52 -98 -90 -78 -152 28 -87 120 -139 231 -131 51 4 65 9 91 35 l31
31 32 -33 c28 -31 36 -34 71 -29 71 10 83 14 89 33 9 29 -3 46 -38 57 l-32 9
-5 175 c-3 105 -10 183 -17 195 -46 80 -170 121 -278 90z m165 -356 c0 -72
-74 -120 -145 -93 -17 7 -45 54 -45 77 0 23 82 54 153 56 37 1 37 1 37 -40z"/>
<path d="M6670 2826 c-81 -22 -105 -39 -102 -66 5 -32 29 -70 45 -70 7 0 30 9
52 20 61 31 110 27 151 -14 19 -19 34 -41 34 -50 0 -21 -39 -36 -93 -36 -73 0
-116 -18 -173 -74 -49 -47 -54 -56 -54 -94 0 -56 20 -102 58 -134 70 -58 175
-63 239 -11 l37 29 27 -30 c24 -28 33 -31 87 -31 95 0 126 47 55 82 l-38 18 0
165 c0 134 -3 171 -17 195 -52 96 -177 137 -308 101z m178 -342 c5 -48 -14
-83 -53 -99 -47 -20 -71 -19 -95 5 -64 64 -9 132 105 127 37 -2 40 -4 43 -33z"/>
<path d="M5888 2813 c-25 -6 -22 -32 5 -61 21 -23 22 -31 22 -207 l0 -184 -29
-30 c-18 -18 -26 -36 -22 -46 5 -13 24 -15 128 -13 117 3 123 4 126 25 2 14
-3 23 -18 28 -44 14 -51 42 -49 207 1 84 6 177 10 207 11 74 4 81 -85 80 -39
-1 -79 -3 -88 -6z"/>
<path d="M4825 2723 c-11 -3 -35 -16 -52 -30 -58 -43 -37 -113 38 -133 53 -15
90 -6 124 29 37 39 39 87 5 112 -27 21 -82 31 -115 22z"/>
<path d="M2975 2695 c-31 -30 -32 -59 -3 -79 49 -34 148 -4 148 44 0 27 -47
60 -87 60 -23 0 -42 -8 -58 -25z"/>
<path d="M2600 8721 c-51 -26 -205 -128 -219 -145 -11 -13 -1 -32 60 -113 129
-176 162 -217 217 -280 l55 -61 48 41 48 41 -49 56 -49 57 65 64 c80 80 108
133 101 195 -13 120 -168 201 -277 145z m119 -137 c12 -15 21 -36 21 -48 0
-21 -86 -116 -105 -115 -8 0 -84 89 -93 111 -6 13 102 78 130 78 17 0 34 -10
47 -26z"/>
<path d="M7740 8568 c-30 -34 -92 -109 -138 -167 -45 -59 -105 -125 -132 -148
l-50 -41 53 -46 c47 -41 53 -44 65 -28 72 97 279 333 329 376 l34 29 -43 44
c-23 23 -47 43 -53 43 -6 0 -35 -28 -65 -62z"/>
<path d="M7842 8244 c-106 -108 -191 -201 -189 -207 8 -20 259 -287 270 -287
16 0 107 61 107 71 0 5 -45 53 -100 105 -55 53 -100 104 -100 114 0 10 57 73
128 141 169 163 167 161 147 198 -13 27 -51 61 -65 61 -3 0 -92 -88 -198 -196z"/>
<path d="M2096 8346 l-36 -44 45 -112 c25 -62 54 -125 66 -141 19 -27 19 -29
2 -29 -10 0 -83 20 -162 44 l-144 45 -43 -47 c-24 -26 -43 -52 -44 -57 0 -13
363 -306 407 -329 35 -17 68 -11 92 18 11 14 -1 29 -93 117 -59 56 -105 103
-104 105 2 1 64 -11 137 -27 74 -16 136 -27 140 -24 7 7 -34 123 -66 188 -13
27 -28 59 -33 73 -9 22 -8 23 8 15 10 -6 25 -17 32 -26 8 -9 34 -31 59 -47 25
-17 69 -51 98 -75 l52 -44 27 23 c72 60 71 53 10 109 -122 111 -379 309 -402
309 -6 0 -28 -20 -48 -44z"/>
<path d="M1629 7863 c-33 -35 -130 -153 -172 -208 -18 -24 -18 -24 10 -38 15
-8 122 -90 237 -181 114 -91 212 -164 216 -161 4 3 20 26 36 53 38 65 138 203
169 232 34 32 32 45 -15 76 -36 24 -42 25 -53 12 -7 -9 -45 -57 -86 -107 l-74
-91 -30 23 c-61 47 -64 36 55 194 11 14 -66 75 -86 67 -7 -3 -34 -34 -60 -69
-26 -36 -51 -65 -56 -65 -4 0 -27 18 -51 39 l-44 39 41 44 c22 24 53 58 68 77
26 32 26 34 9 53 -15 17 -64 48 -75 48 -2 0 -20 -17 -39 -37z"/>
<path d="M8530 7861 c-8 -5 -69 -23 -135 -40 -238 -61 -341 -91 -387 -112 -44
-21 -62 -39 -38 -39 6 0 30 -18 54 -40 24 -22 47 -40 51 -40 4 0 18 9 32 20
44 34 40 38 157 -143 19 -29 19 -32 3 -75 -15 -43 -15 -47 3 -71 29 -41 60
-66 69 -55 18 18 125 211 167 299 43 90 84 219 84 262 0 12 -9 27 -19 33 -23
12 -22 12 -41 1z m-90 -161 c0 -5 -18 -38 -40 -72 -22 -35 -40 -69 -40 -75 0
-26 -18 -12 -54 42 -20 30 -36 58 -37 62 0 8 124 50 154 52 9 1 17 -3 17 -9z"/>
<path d="M8645 7107 c-53 -45 -25 -148 42 -155 24 -2 36 4 57 28 35 42 34 83
-3 121 -35 35 -61 37 -96 6z"/>
<path d="M1480 7095 c-44 -47 -8 -145 55 -145 58 0 99 73 71 128 -26 50 -87
58 -126 17z"/>
<path d="M6941 1086 c-22 -57 -41 -107 -41 -110 0 -3 11 -6 25 -6 18 0 25 5
25 20 0 16 7 20 33 20 21 0 41 -8 52 -20 17 -19 55 -28 55 -12 0 4 -11 26 -24
49 -13 22 -31 64 -40 91 -30 88 -38 84 -85 -32z m69 -21 c0 -13 -29 -29 -37
-21 -3 2 0 14 7 25 11 22 30 20 30 -4z"/>
<path d="M2481 1158 c-5 -13 -23 -54 -40 -91 -17 -38 -31 -75 -31 -83 0 -22
37 -17 43 6 4 16 14 20 46 20 30 0 43 -5 51 -20 10 -18 50 -29 50 -13 0 12
-92 193 -101 199 -5 3 -13 -5 -18 -18z m23 -84 c9 -22 8 -24 -9 -24 -8 0 -15
9 -15 20 0 24 15 27 24 4z"/>
<path d="M2797 1173 c-32 -4 -38 -8 -35 -26 2 -13 12 -23 28 -27 23 -5 25 -11
28 -73 3 -64 4 -67 28 -67 25 0 25 0 18 70 l-7 70 32 0 c28 0 31 3 31 30 0 29
-2 30 -42 28 -24 -1 -60 -3 -81 -5z"/>
<path d="M2958 1081 l-3 -101 63 0 c55 0 62 2 62 20 0 16 -7 20 -35 20 -24 0
-35 5 -35 15 0 9 9 15 25 15 20 0 25 5 25 24 0 18 -7 25 -30 30 -47 9 -39 36
10 36 29 0 40 4 40 15 0 11 -12 15 -44 15 -24 0 -51 3 -60 6 -12 5 -15 -10
-18 -95z"/>
<path d="M3532 1107 c-18 -39 -36 -84 -39 -99 -5 -24 -2 -28 16 -28 11 0 21 6
21 14 0 8 14 16 33 19 25 4 37 0 55 -19 27 -29 42 -31 42 -5 0 22 -78 191 -88
191 -4 0 -22 -33 -40 -73z m48 -37 c0 -11 -4 -20 -10 -20 -5 0 -10 9 -10 20 0
11 5 20 10 20 6 0 10 -9 10 -20z"/>
<path d="M4008 1169 c-18 -7 -29 -20 -34 -41 -7 -35 5 -49 64 -74 42 -19 33
-34 -17 -27 -69 9 -64 -39 6 -52 47 -9 85 24 81 70 -3 26 -9 32 -46 44 -51 16
-50 35 1 39 44 4 50 28 11 42 -29 12 -30 12 -66 -1z"/>
<path d="M4160 1079 c0 -90 2 -100 18 -97 10 2 18 14 20 31 3 24 8 27 38 27
29 0 34 -3 34 -24 0 -28 11 -39 32 -31 11 5 13 24 10 93 -5 112 -27 141 -41
55 -6 -34 -9 -38 -36 -38 -28 0 -30 3 -33 43 -3 34 -7 42 -23 42 -18 0 -19 -8
-19 -101z"/>
<path d="M5947 1174 c-1 -1 -1 -48 1 -103 l3 -101 45 0 c45 0 82 13 96 34 12
18 9 53 -6 65 -10 8 -13 23 -9 45 3 22 1 36 -8 42 -13 8 -117 23 -122 18z m80
-61 c2 -6 -3 -13 -12 -16 -10 -5 -15 0 -15 14 0 21 21 22 27 2z m23 -73 c0
-13 -7 -20 -20 -20 -25 0 -27 27 -2 33 9 3 18 5 20 6 1 0 2 -8 2 -19z"/>
<path d="M6150 1075 l0 -100 71 -2 c68 -3 70 -2 67 20 -2 18 -10 23 -46 25
-34 3 -43 7 -40 20 2 11 16 19 40 22 46 6 38 24 -14 34 -23 4 -38 13 -38 21 0
9 14 15 38 17 28 2 37 7 37 22 0 15 -9 18 -58 20 l-57 1 0 -100z"/>
<path d="M6300 1171 c0 -14 90 -200 100 -206 5 -3 16 5 24 17 21 33 59 166 52
183 -10 27 -33 15 -44 -24 -7 -21 -19 -44 -27 -51 -12 -10 -17 -6 -29 22 -8
18 -17 41 -20 51 -5 17 -56 25 -56 8z"/>
<path d="M6728 1174 c-3 -5 -9 -46 -12 -90 -6 -68 -4 -84 9 -98 24 -23 33 -20
40 15 l7 31 32 -31 c18 -17 42 -31 54 -31 28 0 27 8 -3 45 l-24 29 21 23 c25
27 19 66 -15 87 -27 18 -103 31 -109 20z m82 -64 c0 -13 -7 -20 -20 -20 -19 0
-27 20 -13 33 13 14 33 6 33 -13z"/>
<path d="M7153 1161 c-65 -41 -68 -81 -12 -145 34 -38 47 -46 75 -46 46 0 87
39 82 78 -3 23 -8 27 -40 30 -33 3 -38 0 -38 -17 0 -12 7 -21 16 -21 8 0 12
-4 9 -10 -23 -36 -105 23 -85 61 15 26 30 33 72 30 27 -1 38 2 38 12 0 40 -71
56 -117 28z"/>
<path d="M7552 1163 c-23 -21 -35 -53 -24 -68 4 -6 22 -21 40 -34 44 -31 41
-44 -8 -36 -31 5 -40 4 -40 -8 0 -23 34 -47 69 -47 34 0 81 37 81 65 0 21 -36
54 -71 67 -43 15 -36 31 11 23 32 -5 41 -3 46 10 15 38 -67 60 -104 28z"/>
<path d="M2633 1118 c4 -29 7 -74 7 -100 l0 -47 60 2 c58 2 60 3 60 29 0 20
-4 26 -15 22 -8 -4 -26 -3 -40 0 -22 6 -24 11 -27 74 -3 62 -5 67 -27 70 -23
4 -24 2 -18 -50z"/>
<path d="M3130 1076 c0 -89 1 -96 20 -96 14 0 20 7 20 23 0 39 12 39 47 0 25
-27 37 -33 45 -25 9 9 7 16 -6 31 -17 18 -17 22 -2 43 21 30 20 71 -3 92 -10
9 -41 19 -70 23 l-51 6 0 -97z m80 29 c0 -8 -9 -15 -20 -15 -11 0 -20 7 -20
15 0 8 9 15 20 15 11 0 20 -7 20 -15z"/>
<path d="M3320 1077 c0 -58 4 -97 10 -97 6 0 10 13 10 29 0 45 18 47 59 7 62
-60 69 -48 55 93 -9 80 -22 83 -39 7 l-6 -29 -45 44 -44 43 0 -97z"/>
<path d="M3670 1151 c0 -13 10 -20 31 -25 28 -5 30 -9 25 -32 -10 -39 4 -114
20 -114 11 0 14 17 14 70 0 67 1 70 24 70 25 0 36 15 29 38 -3 8 -27 12 -74
12 -61 0 -69 -2 -69 -19z"/>
<path d="M4400 1143 c-62 -52 -58 -100 13 -143 60 -37 111 -21 146 47 17 34
14 49 -20 88 -40 45 -91 49 -139 8z m100 -28 c30 -36 7 -95 -36 -95 -27 0 -64
32 -64 55 0 42 74 72 100 40z"/>
<path d="M4632 1079 c3 -64 8 -93 19 -99 10 -7 15 -3 17 15 3 19 16 32 52 50
57 29 64 38 56 71 -8 30 -58 54 -112 54 l-36 0 4 -91z m72 45 c21 -8 20 -30
-1 -38 -17 -7 -33 9 -33 32 0 13 10 15 34 6z"/>
<path d="M4827 1083 c6 -106 8 -114 28 -107 12 5 15 24 15 95 0 49 -4 89 -9
89 -5 0 -16 3 -24 6 -13 4 -14 -8 -10 -83z"/>
<path d="M4940 1098 c0 -40 -3 -84 -7 -97 -5 -19 -2 -22 13 -19 15 2 20 13 22
46 l3 43 55 -51 c31 -27 60 -48 65 -44 5 3 9 48 9 100 0 75 -3 94 -14 94 -10
0 -17 -16 -22 -45 -3 -25 -7 -45 -9 -45 -1 0 -23 20 -47 45 -25 25 -50 45 -57
45 -7 0 -11 -25 -11 -72z"/>
<path d="M5181 1135 c-36 -41 -39 -67 -12 -111 48 -79 171 -60 171 26 0 28 -2
30 -40 30 -41 0 -52 -14 -28 -38 9 -9 7 -12 -11 -12 -33 0 -61 18 -61 39 0 28
31 49 78 53 42 3 42 3 27 26 -12 16 -26 22 -55 22 -31 0 -44 -6 -69 -35z"/>
<path d="M5610 1123 c0 -42 -3 -52 -20 -56 -26 -7 -25 -34 3 -63 42 -45 153
-23 190 37 29 46 -39 113 -126 125 l-47 7 0 -50z m119 -32 c13 -24 -20 -71
-50 -71 -16 0 -19 7 -19 45 0 43 1 45 30 45 19 0 33 -7 39 -19z m-122 -63 c-3
-8 -6 -5 -6 6 -1 11 2 17 5 13 3 -3 4 -12 1 -19z"/>
<path d="M6538 1073 c2 -54 5 -98 5 -98 1 -1 30 1 65 3 45 3 62 8 62 18 0 8
-10 14 -24 14 -31 0 -56 10 -56 21 0 5 9 9 19 9 41 0 36 44 -5 54 -13 4 -24
11 -24 17 0 10 7 13 53 23 15 4 27 13 27 21 0 12 -14 15 -62 15 l-63 0 3 -97z"/>
<path d="M7350 1073 l0 -98 62 2 c54 1 63 4 63 20 0 14 -9 19 -38 21 -50 4
-49 35 1 40 41 4 38 26 -4 30 -60 7 -53 42 9 42 20 0 27 5 27 20 0 18 -7 20
-60 20 l-60 0 0 -97z"/>
<path d="M2102 1134 c-50 -35 -13 -109 54 -107 110 3 114 123 4 123 -20 0 -46
-7 -58 -16z"/>
<path d="M7914 1125 c-18 -19 -23 -31 -19 -48 11 -35 35 -47 92 -47 55 0 73
14 73 59 0 60 -98 84 -146 36z"/>
</g>
</svg>
